<?xml version="1.0" encoding="UTF-8" standalone="no"?>
<!DOCTYPE svg PUBLIC "-//W3C//DTD SVG 1.1//EN" "http://www.w3.org/Graphics/SVG/1.1/DTD/svg11.dtd">
<svg width="100%" height="100%" viewBox="0 0 264 139" version="1.1" xmlns="http://www.w3.org/2000/svg" xmlns:xlink="http://www.w3.org/1999/xlink" xml:space="preserve" xmlns:serif="http://www.serif.com/" style="fill-rule:evenodd;clip-rule:evenodd;stroke-linejoin:round;stroke-miterlimit:2;">
    <g id="path225" transform="matrix(0.52062,0,0,-0.52062,-47.3617,265.95)">
        <path d="M361.527,617.388C361.527,614.721 368.112,594.562 373.771,579.903C383.096,555.752 391.304,521.148 392.613,500.464C392.888,496.133 394.072,485.67 395.245,477.214C396.419,468.758 397.808,456.821 398.333,450.687C399.177,440.829 399.145,438.794 398.057,433.152C396.588,425.529 393.776,419.32 388.801,412.714C386.781,410.033 382.943,404.802 380.272,401.089C377.6,397.377 373.312,392.045 370.742,389.24C366.922,385.072 365.794,383.224 364.562,379.115C362.896,373.556 355.463,360.214 351.109,354.964C349.569,353.108 347.178,349.93 345.796,347.902C344.414,345.874 340.976,341.54 338.155,338.271C332.472,331.684 331.802,329.376 334.763,326.595C337.783,323.757 343.314,324.677 350.875,329.272C357.603,333.361 364.011,339.307 366.601,343.864C370.168,350.14 378.095,361.01 381.658,364.513C385.338,368.13 387.545,368.536 391.252,366.275C400.407,360.693 403.629,341.218 400.258,311.839C398.7,298.26 398.382,276.523 399.659,270.823C401.034,264.682 403.278,261.646 406.65,261.362C408.626,261.195 409.899,261.606 411.398,262.896C413.171,264.42 413.53,265.459 414.071,270.623C414.415,273.904 414.718,280.133 414.745,284.464C414.774,288.965 415.276,294.106 415.918,296.464C416.536,298.733 417.375,304.817 417.782,309.984C419.461,331.317 420.206,333.833 424.95,334.179L427.152,334.339L427.661,321.964C427.941,315.158 428.525,306.552 428.959,302.839C429.392,299.127 430.117,291.87 430.569,286.714C431.455,276.612 433.55,267.306 435.756,263.679C437.395,260.984 440.415,260.189 443.738,261.577C447.222,263.032 447.738,265.47 446.442,274.339C445.816,278.627 445.271,288.745 445.17,297.964C445.073,306.833 444.44,319.093 443.764,325.208C442.509,336.56 442.769,339.214 445.134,339.214C446.639,339.214 446.896,338.576 448.205,331.593C448.85,328.154 450.336,321.458 451.506,316.714C452.676,311.97 454.217,304.883 454.93,300.964C457.695,285.769 459.734,277.378 461.113,275.523C463.116,272.827 466.487,272.606 469.25,274.988C471.317,276.77 471.394,277.075 471.21,282.716C471.104,285.946 470.509,291.458 469.887,294.964C469.264,298.47 468.287,305.895 467.714,311.464C467,318.414 465.836,324.412 464.005,330.589C460.026,344.007 459.936,345.141 462.642,347.721C463.886,348.907 465.489,349.735 466.254,349.588C467.011,349.442 469.241,347.133 471.212,344.456C473.182,341.779 476.261,337.733 478.055,335.464C479.849,333.195 484.032,327.289 487.351,322.339C493.863,312.627 498.745,307.189 501.594,306.474C504.103,305.844 506.914,307.32 507.838,309.751C508.51,311.518 508.22,312.57 505.761,317.274C504.188,320.282 501.458,324.508 499.694,326.666C497.93,328.824 495.118,333.289 493.445,336.589C491.773,339.889 489.62,343.622 488.661,344.885C484.449,350.429 478.524,361.243 475.988,368.012C474.474,372.053 471.748,381.354 469.931,388.68C466.289,403.359 464.198,409.109 459.834,416.446C457.524,420.331 456.574,423.117 455.227,429.964C453.552,438.479 453.542,438.877 454.448,461.089C455.163,478.606 455.169,487.659 454.477,501.964C453.568,520.757 453.905,547.863 455.275,566.089C455.678,571.452 456.23,585.374 456.503,597.027L456.997,618.214L409.262,618.214C375.025,618.214 361.527,617.981 361.527,617.389L361.527,617.388Z" style="fill:none;fill-rule:nonzero;"/>
        <clipPath id="_clip1">
            <path d="M361.527,617.388C361.527,614.721 368.112,594.562 373.771,579.903C383.096,555.752 391.304,521.148 392.613,500.464C392.888,496.133 394.072,485.67 395.245,477.214C396.419,468.758 397.808,456.821 398.333,450.687C399.177,440.829 399.145,438.794 398.057,433.152C396.588,425.529 393.776,419.32 388.801,412.714C386.781,410.033 382.943,404.802 380.272,401.089C377.6,397.377 373.312,392.045 370.742,389.24C366.922,385.072 365.794,383.224 364.562,379.115C362.896,373.556 355.463,360.214 351.109,354.964C349.569,353.108 347.178,349.93 345.796,347.902C344.414,345.874 340.976,341.54 338.155,338.271C332.472,331.684 331.802,329.376 334.763,326.595C337.783,323.757 343.314,324.677 350.875,329.272C357.603,333.361 364.011,339.307 366.601,343.864C370.168,350.14 378.095,361.01 381.658,364.513C385.338,368.13 387.545,368.536 391.252,366.275C400.407,360.693 403.629,341.218 400.258,311.839C398.7,298.26 398.382,276.523 399.659,270.823C401.034,264.682 403.278,261.646 406.65,261.362C408.626,261.195 409.899,261.606 411.398,262.896C413.171,264.42 413.53,265.459 414.071,270.623C414.415,273.904 414.718,280.133 414.745,284.464C414.774,288.965 415.276,294.106 415.918,296.464C416.536,298.733 417.375,304.817 417.782,309.984C419.461,331.317 420.206,333.833 424.95,334.179L427.152,334.339L427.661,321.964C427.941,315.158 428.525,306.552 428.959,302.839C429.392,299.127 430.117,291.87 430.569,286.714C431.455,276.612 433.55,267.306 435.756,263.679C437.395,260.984 440.415,260.189 443.738,261.577C447.222,263.032 447.738,265.47 446.442,274.339C445.816,278.627 445.271,288.745 445.17,297.964C445.073,306.833 444.44,319.093 443.764,325.208C442.509,336.56 442.769,339.214 445.134,339.214C446.639,339.214 446.896,338.576 448.205,331.593C448.85,328.154 450.336,321.458 451.506,316.714C452.676,311.97 454.217,304.883 454.93,300.964C457.695,285.769 459.734,277.378 461.113,275.523C463.116,272.827 466.487,272.606 469.25,274.988C471.317,276.77 471.394,277.075 471.21,282.716C471.104,285.946 470.509,291.458 469.887,294.964C469.264,298.47 468.287,305.895 467.714,311.464C467,318.414 465.836,324.412 464.005,330.589C460.026,344.007 459.936,345.141 462.642,347.721C463.886,348.907 465.489,349.735 466.254,349.588C467.011,349.442 469.241,347.133 471.212,344.456C473.182,341.779 476.261,337.733 478.055,335.464C479.849,333.195 484.032,327.289 487.351,322.339C493.863,312.627 498.745,307.189 501.594,306.474C504.103,305.844 506.914,307.32 507.838,309.751C508.51,311.518 508.22,312.57 505.761,317.274C504.188,320.282 501.458,324.508 499.694,326.666C497.93,328.824 495.118,333.289 493.445,336.589C491.773,339.889 489.62,343.622 488.661,344.885C484.449,350.429 478.524,361.243 475.988,368.012C474.474,372.053 471.748,381.354 469.931,388.68C466.289,403.359 464.198,409.109 459.834,416.446C457.524,420.331 456.574,423.117 455.227,429.964C453.552,438.479 453.542,438.877 454.448,461.089C455.163,478.606 455.169,487.659 454.477,501.964C453.568,520.757 453.905,547.863 455.275,566.089C455.678,571.452 456.23,585.374 456.503,597.027L456.997,618.214L409.262,618.214C375.025,618.214 361.527,617.981 361.527,617.389L361.527,617.388Z" clip-rule="nonzero"/>
        </clipPath>
        <g clip-path="url(#_clip1)">
            <g transform="matrix(2.03784e-16,0.23436,0.697588,1.53937e-15,396.173,445.988)">
                <rect x="60.836" y="-22.079" width="120.77" height="130.597" style="fill:url(#_Linear2);"/>
            </g>
            <g transform="matrix(-2.39363e-17,-0.319719,-0.304676,-2.86837e-15,413.834,318.968)">
                <rect x="60.836" y="-22.079" width="120.77" height="130.597" style="fill:url(#_Linear3);"/>
            </g>
            <g transform="matrix(-2.3211e-17,-0.319719,-0.253983,-2.87148e-15,448.123,318.968)">
                <rect x="60.836" y="-22.079" width="120.77" height="130.597" style="fill:url(#_Linear4);"/>
            </g>
            <g transform="matrix(-1.86225e-17,-0.232938,-0.304676,-2.08474e-15,486.793,313.689)">
                <rect x="60.836" y="-22.079" width="120.77" height="130.597" style="fill:url(#_Linear5);"/>
            </g>
            <g transform="matrix(-5.27792,2.13684e-16,4.59099e-16,1.23667,1117.87,326.044)">
                <rect x="60.836" y="-22.079" width="120.77" height="130.597" style="fill:white;"/>
            </g>
        </g>
    </g>
    <g id="path2251" serif:id="path225" transform="matrix(0.52062,0,0,0.52062,-128.595,-127.678)">
        <path d="M361.527,617.388C361.527,614.721 368.112,594.562 373.771,579.903C383.096,555.752 391.304,521.148 392.613,500.464C392.888,496.133 394.072,485.67 395.245,477.214C396.419,468.758 397.808,456.821 398.333,450.687C399.177,440.829 399.145,438.794 398.057,433.152C396.588,425.529 393.776,419.32 388.801,412.714C386.781,410.033 382.943,404.802 380.272,401.089C377.6,397.377 373.312,392.045 370.742,389.24C366.922,385.072 365.794,383.224 364.562,379.115C362.896,373.556 355.463,360.214 351.109,354.964C349.569,353.108 347.178,349.93 345.796,347.902C344.414,345.874 340.976,341.54 338.155,338.271C332.472,331.684 331.802,329.376 334.763,326.595C337.783,323.757 343.314,324.677 350.875,329.272C357.603,333.361 364.011,339.307 366.601,343.864C370.168,350.14 378.095,361.01 381.658,364.513C385.338,368.13 387.545,368.536 391.252,366.275C400.407,360.693 403.629,341.218 400.258,311.839C398.7,298.26 398.382,276.523 399.659,270.823C401.034,264.682 403.278,261.646 406.65,261.362C408.626,261.195 409.899,261.606 411.398,262.896C413.171,264.42 413.53,265.459 414.071,270.623C414.415,273.904 414.718,280.133 414.745,284.464C414.774,288.965 415.276,294.106 415.918,296.464C416.536,298.733 417.375,304.817 417.782,309.984C419.461,331.317 420.206,333.833 424.95,334.179L427.152,334.339L427.661,321.964C427.941,315.158 428.525,306.552 428.959,302.839C429.392,299.127 430.117,291.87 430.569,286.714C431.455,276.612 433.55,267.306 435.756,263.679C437.395,260.984 440.415,260.189 443.738,261.577C447.222,263.032 447.738,265.47 446.442,274.339C445.816,278.627 445.271,288.745 445.17,297.964C445.073,306.833 444.44,319.093 443.764,325.208C442.509,336.56 442.769,339.214 445.134,339.214C446.639,339.214 446.896,338.576 448.205,331.593C448.85,328.154 450.336,321.458 451.506,316.714C452.676,311.97 454.217,304.883 454.93,300.964C457.695,285.769 459.734,277.378 461.113,275.523C463.116,272.827 466.487,272.606 469.25,274.988C471.317,276.77 471.394,277.075 471.21,282.716C471.104,285.946 470.509,291.458 469.887,294.964C469.264,298.47 468.287,305.895 467.714,311.464C467,318.414 465.836,324.412 464.005,330.589C460.026,344.007 459.936,345.141 462.642,347.721C463.886,348.907 465.489,349.735 466.254,349.588C467.011,349.442 469.241,347.133 471.212,344.456C473.182,341.779 476.261,337.733 478.055,335.464C479.849,333.195 484.032,327.289 487.351,322.339C493.863,312.627 498.745,307.189 501.594,306.474C504.103,305.844 506.914,307.32 507.838,309.751C508.51,311.518 508.22,312.57 505.761,317.274C504.188,320.282 501.458,324.508 499.694,326.666C497.93,328.824 495.118,333.289 493.445,336.589C491.773,339.889 489.62,343.622 488.661,344.885C484.449,350.429 478.524,361.243 475.988,368.012C474.474,372.053 471.748,381.354 469.931,388.68C466.289,403.359 464.198,409.109 459.834,416.446C457.524,420.331 456.574,423.117 455.227,429.964C453.552,438.479 453.542,438.877 454.448,461.089C455.163,478.606 455.169,487.659 454.477,501.964C453.568,520.757 453.905,547.863 455.275,566.089C455.678,571.452 456.23,585.374 456.503,597.027L456.997,618.214L409.262,618.214C375.025,618.214 361.527,617.981 361.527,617.389L361.527,617.388Z" style="fill:none;fill-rule:nonzero;"/>
        <clipPath id="_clip6">
            <path d="M361.527,617.388C361.527,614.721 368.112,594.562 373.771,579.903C383.096,555.752 391.304,521.148 392.613,500.464C392.888,496.133 394.072,485.67 395.245,477.214C396.419,468.758 397.808,456.821 398.333,450.687C399.177,440.829 399.145,438.794 398.057,433.152C396.588,425.529 393.776,419.32 388.801,412.714C386.781,410.033 382.943,404.802 380.272,401.089C377.6,397.377 373.312,392.045 370.742,389.24C366.922,385.072 365.794,383.224 364.562,379.115C362.896,373.556 355.463,360.214 351.109,354.964C349.569,353.108 347.178,349.93 345.796,347.902C344.414,345.874 340.976,341.54 338.155,338.271C332.472,331.684 331.802,329.376 334.763,326.595C337.783,323.757 343.314,324.677 350.875,329.272C357.603,333.361 364.011,339.307 366.601,343.864C370.168,350.14 378.095,361.01 381.658,364.513C385.338,368.13 387.545,368.536 391.252,366.275C400.407,360.693 403.629,341.218 400.258,311.839C398.7,298.26 398.382,276.523 399.659,270.823C401.034,264.682 403.278,261.646 406.65,261.362C408.626,261.195 409.899,261.606 411.398,262.896C413.171,264.42 413.53,265.459 414.071,270.623C414.415,273.904 414.718,280.133 414.745,284.464C414.774,288.965 415.276,294.106 415.918,296.464C416.536,298.733 417.375,304.817 417.782,309.984C419.461,331.317 420.206,333.833 424.95,334.179L427.152,334.339L427.661,321.964C427.941,315.158 428.525,306.552 428.959,302.839C429.392,299.127 430.117,291.87 430.569,286.714C431.455,276.612 433.55,267.306 435.756,263.679C437.395,260.984 440.415,260.189 443.738,261.577C447.222,263.032 447.738,265.47 446.442,274.339C445.816,278.627 445.271,288.745 445.17,297.964C445.073,306.833 444.44,319.093 443.764,325.208C442.509,336.56 442.769,339.214 445.134,339.214C446.639,339.214 446.896,338.576 448.205,331.593C448.85,328.154 450.336,321.458 451.506,316.714C452.676,311.97 454.217,304.883 454.93,300.964C457.695,285.769 459.734,277.378 461.113,275.523C463.116,272.827 466.487,272.606 469.25,274.988C471.317,276.77 471.394,277.075 471.21,282.716C471.104,285.946 470.509,291.458 469.887,294.964C469.264,298.47 468.287,305.895 467.714,311.464C467,318.414 465.836,324.412 464.005,330.589C460.026,344.007 459.936,345.141 462.642,347.721C463.886,348.907 465.489,349.735 466.254,349.588C467.011,349.442 469.241,347.133 471.212,344.456C473.182,341.779 476.261,337.733 478.055,335.464C479.849,333.195 484.032,327.289 487.351,322.339C493.863,312.627 498.745,307.189 501.594,306.474C504.103,305.844 506.914,307.32 507.838,309.751C508.51,311.518 508.22,312.57 505.761,317.274C504.188,320.282 501.458,324.508 499.694,326.666C497.93,328.824 495.118,333.289 493.445,336.589C491.773,339.889 489.62,343.622 488.661,344.885C484.449,350.429 478.524,361.243 475.988,368.012C474.474,372.053 471.748,381.354 469.931,388.68C466.289,403.359 464.198,409.109 459.834,416.446C457.524,420.331 456.574,423.117 455.227,429.964C453.552,438.479 453.542,438.877 454.448,461.089C455.163,478.606 455.169,487.659 454.477,501.964C453.568,520.757 453.905,547.863 455.275,566.089C455.678,571.452 456.23,585.374 456.503,597.027L456.997,618.214L409.262,618.214C375.025,618.214 361.527,617.981 361.527,617.389L361.527,617.388Z" clip-rule="nonzero"/>
        </clipPath>
        <g clip-path="url(#_clip6)">
            <g transform="matrix(2.03784e-16,0.23436,0.697588,1.53937e-15,396.173,452.445)">
                <rect x="60.836" y="-22.079" width="120.77" height="130.597" style="fill:url(#_Linear7);"/>
            </g>
            <g transform="matrix(-2.39363e-17,-0.319719,-0.304676,-2.86837e-15,413.834,318.968)">
                <rect x="60.836" y="-22.079" width="120.77" height="130.597" style="fill:url(#_Linear8);"/>
            </g>
            <g transform="matrix(-2.3211e-17,-0.319719,-0.253983,-2.87148e-15,448.123,318.968)">
                <rect x="60.836" y="-22.079" width="120.77" height="130.597" style="fill:url(#_Linear9);"/>
            </g>
            <g transform="matrix(-1.86225e-17,-0.232938,-0.304676,-2.08474e-15,486.793,313.689)">
                <rect x="60.836" y="-22.079" width="120.77" height="130.597" style="fill:url(#_Linear10);"/>
            </g>
            <g transform="matrix(-5.27792,1.83299e-16,4.69734e-16,1.32352,1121.89,325.6)">
                <rect x="60.836" y="-22.079" width="120.77" height="130.597" style="fill:white;"/>
            </g>
        </g>
    </g>
    <g transform="matrix(1.76596,0,0,1.76596,-37.4665,-12.1531)">
        <g transform="matrix(33.174,0,0,33.174,30.0047,60.294)">
            <path d="M0.406,-0.118L0.421,-0.106C0.4,-0.066 0.373,-0.036 0.341,-0.016C0.309,0.004 0.275,0.014 0.239,0.014C0.178,0.014 0.129,-0.009 0.093,-0.055C0.056,-0.101 0.038,-0.156 0.038,-0.221C0.038,-0.283 0.055,-0.338 0.088,-0.385C0.128,-0.442 0.183,-0.47 0.253,-0.47C0.301,-0.47 0.338,-0.458 0.366,-0.435C0.394,-0.411 0.408,-0.384 0.408,-0.355C0.408,-0.336 0.402,-0.322 0.391,-0.311C0.38,-0.299 0.365,-0.294 0.347,-0.294C0.327,-0.294 0.312,-0.3 0.299,-0.313C0.287,-0.326 0.279,-0.348 0.276,-0.381C0.274,-0.401 0.269,-0.416 0.262,-0.424C0.254,-0.432 0.245,-0.436 0.235,-0.436C0.22,-0.436 0.206,-0.428 0.195,-0.411C0.178,-0.386 0.17,-0.348 0.17,-0.296C0.17,-0.253 0.177,-0.212 0.19,-0.173C0.204,-0.133 0.223,-0.104 0.247,-0.085C0.264,-0.071 0.286,-0.064 0.31,-0.064C0.326,-0.064 0.341,-0.068 0.355,-0.075C0.37,-0.083 0.387,-0.097 0.406,-0.118Z" style="fill-rule:nonzero;"/>
        </g>
        <g transform="matrix(33.174,0,0,33.174,44.7289,60.294)">
            <path d="M0.144,-0.678C0.165,-0.678 0.183,-0.67 0.197,-0.656C0.212,-0.641 0.219,-0.623 0.219,-0.602C0.219,-0.581 0.212,-0.563 0.197,-0.549C0.182,-0.534 0.164,-0.527 0.144,-0.527C0.123,-0.527 0.105,-0.534 0.09,-0.549C0.076,-0.563 0.068,-0.581 0.068,-0.602C0.068,-0.623 0.076,-0.641 0.09,-0.656C0.105,-0.67 0.123,-0.678 0.144,-0.678ZM0.212,-0.457L0.212,-0.095C0.212,-0.063 0.216,-0.042 0.223,-0.033C0.231,-0.024 0.245,-0.019 0.267,-0.018L0.267,-0L0.021,-0L0.021,-0.018C0.041,-0.018 0.056,-0.024 0.065,-0.035C0.072,-0.043 0.075,-0.063 0.075,-0.095L0.075,-0.361C0.075,-0.394 0.071,-0.414 0.064,-0.423C0.056,-0.432 0.042,-0.437 0.021,-0.438L0.021,-0.457L0.212,-0.457Z" style="fill-rule:nonzero;"/>
        </g>
        <g transform="matrix(33.174,0,0,33.174,53.9457,60.294)">
            <path d="M0.215,-0.624L0.215,-0.457L0.323,-0.457L0.323,-0.408L0.215,-0.408L0.215,-0.126C0.215,-0.1 0.216,-0.083 0.219,-0.075C0.221,-0.068 0.225,-0.062 0.231,-0.057C0.238,-0.052 0.243,-0.05 0.249,-0.05C0.27,-0.05 0.29,-0.066 0.309,-0.098L0.323,-0.087C0.297,-0.025 0.254,0.006 0.195,0.006C0.166,0.006 0.141,-0.002 0.121,-0.018C0.101,-0.034 0.089,-0.052 0.083,-0.072C0.08,-0.083 0.078,-0.113 0.078,-0.162L0.078,-0.408L0.019,-0.408L0.019,-0.425C0.06,-0.454 0.094,-0.485 0.123,-0.517C0.152,-0.549 0.177,-0.584 0.199,-0.624L0.215,-0.624Z" style="fill-rule:nonzero;"/>
        </g>
        <g transform="matrix(33.174,0,0,33.174,64.9929,60.294)">
            <path d="M0.223,-0.457L0.223,-0.353C0.253,-0.4 0.28,-0.432 0.303,-0.447C0.326,-0.462 0.347,-0.47 0.369,-0.47C0.387,-0.47 0.401,-0.465 0.412,-0.453C0.423,-0.442 0.429,-0.426 0.429,-0.406C0.429,-0.384 0.423,-0.367 0.413,-0.355C0.402,-0.343 0.389,-0.337 0.375,-0.337C0.357,-0.337 0.342,-0.342 0.33,-0.354C0.317,-0.365 0.309,-0.371 0.307,-0.372C0.304,-0.374 0.3,-0.375 0.296,-0.375C0.286,-0.375 0.278,-0.371 0.269,-0.364C0.256,-0.353 0.246,-0.337 0.239,-0.317C0.228,-0.285 0.223,-0.25 0.223,-0.212L0.223,-0.107L0.224,-0.08C0.224,-0.062 0.225,-0.05 0.227,-0.044C0.231,-0.036 0.237,-0.029 0.244,-0.025C0.252,-0.021 0.265,-0.019 0.283,-0.018L0.283,-0L0.037,-0L0.037,-0.018C0.056,-0.019 0.07,-0.025 0.077,-0.034C0.084,-0.043 0.087,-0.068 0.087,-0.107L0.087,-0.36C0.087,-0.386 0.086,-0.403 0.083,-0.41C0.08,-0.419 0.076,-0.425 0.069,-0.43C0.063,-0.434 0.052,-0.437 0.037,-0.438L0.037,-0.457L0.223,-0.457Z" style="fill-rule:nonzero;"/>
        </g>
        <g transform="matrix(33.174,0,0,33.174,79.7171,60.294)">
            <path d="M0.286,-0.067C0.23,-0.018 0.18,0.006 0.136,0.006C0.11,0.006 0.088,-0.002 0.071,-0.019C0.054,-0.036 0.045,-0.058 0.045,-0.083C0.045,-0.118 0.06,-0.15 0.09,-0.177C0.12,-0.205 0.185,-0.242 0.286,-0.289L0.286,-0.334C0.286,-0.369 0.284,-0.391 0.28,-0.4C0.276,-0.409 0.269,-0.416 0.259,-0.423C0.248,-0.43 0.237,-0.433 0.224,-0.433C0.202,-0.433 0.185,-0.428 0.171,-0.419C0.163,-0.413 0.159,-0.406 0.159,-0.398C0.159,-0.392 0.163,-0.383 0.172,-0.373C0.185,-0.359 0.191,-0.346 0.191,-0.333C0.191,-0.317 0.185,-0.303 0.173,-0.292C0.161,-0.281 0.146,-0.275 0.126,-0.275C0.106,-0.275 0.089,-0.281 0.075,-0.293C0.061,-0.306 0.054,-0.32 0.054,-0.337C0.054,-0.36 0.063,-0.383 0.082,-0.404C0.101,-0.425 0.126,-0.442 0.16,-0.453C0.193,-0.465 0.227,-0.47 0.263,-0.47C0.306,-0.47 0.341,-0.461 0.366,-0.443C0.391,-0.424 0.408,-0.404 0.415,-0.383C0.42,-0.369 0.422,-0.338 0.422,-0.289L0.422,-0.111C0.422,-0.09 0.423,-0.077 0.424,-0.072C0.426,-0.067 0.428,-0.063 0.432,-0.06C0.435,-0.057 0.439,-0.056 0.443,-0.056C0.451,-0.056 0.46,-0.062 0.469,-0.074L0.483,-0.063C0.467,-0.038 0.45,-0.021 0.433,-0.01C0.415,0.001 0.396,0.006 0.374,0.006C0.347,0.006 0.327,0 0.313,-0.012C0.298,-0.024 0.289,-0.043 0.286,-0.067ZM0.286,-0.103L0.286,-0.256C0.246,-0.233 0.217,-0.208 0.198,-0.182C0.185,-0.164 0.179,-0.146 0.179,-0.128C0.179,-0.113 0.184,-0.1 0.195,-0.089C0.203,-0.08 0.214,-0.076 0.229,-0.076C0.245,-0.076 0.264,-0.085 0.286,-0.103Z" style="fill-rule:nonzero;"/>
        </g>
        <g transform="matrix(33.174,0,0,33.174,96.3041,60.294)">
            <path d="M0.22,-0.662L0.22,-0.398C0.245,-0.424 0.268,-0.443 0.289,-0.454C0.31,-0.465 0.332,-0.47 0.354,-0.47C0.383,-0.47 0.407,-0.462 0.427,-0.446C0.448,-0.43 0.461,-0.41 0.468,-0.388C0.475,-0.366 0.478,-0.329 0.478,-0.277L0.478,-0.099C0.478,-0.064 0.481,-0.043 0.488,-0.034C0.494,-0.025 0.507,-0.02 0.527,-0.018L0.527,-0L0.296,-0L0.296,-0.018C0.312,-0.02 0.324,-0.026 0.333,-0.037C0.338,-0.046 0.341,-0.066 0.341,-0.099L0.341,-0.303C0.341,-0.34 0.34,-0.364 0.337,-0.374C0.334,-0.383 0.329,-0.391 0.322,-0.396C0.315,-0.402 0.307,-0.404 0.298,-0.404C0.285,-0.404 0.273,-0.4 0.26,-0.391C0.248,-0.382 0.235,-0.366 0.22,-0.344L0.22,-0.099C0.22,-0.067 0.223,-0.046 0.228,-0.038C0.234,-0.027 0.246,-0.02 0.266,-0.018L0.266,-0L0.034,-0L0.034,-0.018C0.053,-0.02 0.067,-0.026 0.075,-0.036C0.081,-0.043 0.083,-0.064 0.083,-0.099L0.083,-0.563C0.083,-0.597 0.08,-0.619 0.074,-0.627C0.068,-0.636 0.054,-0.641 0.034,-0.644L0.034,-0.662L0.22,-0.662Z" style="fill-rule:nonzero;"/>
        </g>
        <g transform="matrix(33.174,0,0,33.174,114.754,60.294)">
            <path d="M0.249,-0.47C0.289,-0.47 0.326,-0.46 0.36,-0.439C0.394,-0.419 0.42,-0.39 0.438,-0.352C0.455,-0.314 0.464,-0.273 0.464,-0.228C0.464,-0.163 0.448,-0.109 0.415,-0.065C0.375,-0.013 0.32,0.014 0.25,0.014C0.182,0.014 0.129,-0.01 0.092,-0.059C0.055,-0.107 0.036,-0.163 0.036,-0.226C0.036,-0.292 0.055,-0.349 0.093,-0.397C0.131,-0.446 0.183,-0.47 0.249,-0.47ZM0.251,-0.436C0.234,-0.436 0.22,-0.429 0.208,-0.417C0.196,-0.404 0.189,-0.379 0.185,-0.343C0.181,-0.306 0.179,-0.254 0.179,-0.188C0.179,-0.154 0.181,-0.121 0.186,-0.091C0.19,-0.068 0.197,-0.05 0.209,-0.038C0.221,-0.026 0.234,-0.02 0.249,-0.02C0.264,-0.02 0.276,-0.024 0.286,-0.032C0.298,-0.043 0.307,-0.059 0.311,-0.079C0.318,-0.11 0.321,-0.172 0.321,-0.266C0.321,-0.321 0.318,-0.359 0.312,-0.38C0.305,-0.401 0.296,-0.416 0.284,-0.425C0.276,-0.432 0.265,-0.436 0.251,-0.436Z" style="fill-rule:nonzero;"/>
        </g>
        <g transform="matrix(33.174,0,0,33.174,131.341,60.294)">
            <path d="M0.212,-0.662L0.212,-0.095C0.212,-0.063 0.216,-0.042 0.224,-0.033C0.231,-0.024 0.246,-0.019 0.268,-0.018L0.268,-0L0.021,-0L0.021,-0.018C0.041,-0.018 0.056,-0.024 0.066,-0.035C0.072,-0.043 0.076,-0.063 0.076,-0.095L0.076,-0.567C0.076,-0.599 0.072,-0.62 0.064,-0.629C0.057,-0.638 0.042,-0.643 0.021,-0.644L0.021,-0.662L0.212,-0.662Z" style="fill-rule:nonzero;"/>
        </g>
        <g transform="matrix(33.174,0,0,33.174,140.558,60.294)">
            <path d="M0.478,-0.662L0.478,-0.137C0.478,-0.101 0.479,-0.08 0.48,-0.074C0.483,-0.063 0.488,-0.055 0.495,-0.05C0.503,-0.045 0.515,-0.041 0.534,-0.04L0.534,-0.024L0.341,0.014L0.341,-0.059C0.318,-0.031 0.297,-0.012 0.279,-0.001C0.261,0.009 0.241,0.014 0.218,0.014C0.16,0.014 0.113,-0.012 0.08,-0.064C0.052,-0.107 0.039,-0.159 0.039,-0.22C0.039,-0.269 0.047,-0.313 0.064,-0.352C0.081,-0.391 0.104,-0.421 0.134,-0.44C0.163,-0.46 0.195,-0.47 0.229,-0.47C0.25,-0.47 0.27,-0.466 0.287,-0.458C0.304,-0.449 0.322,-0.434 0.341,-0.413L0.341,-0.551C0.341,-0.586 0.339,-0.607 0.336,-0.614C0.333,-0.623 0.327,-0.63 0.319,-0.635C0.311,-0.639 0.296,-0.642 0.275,-0.642L0.275,-0.662L0.478,-0.662ZM0.341,-0.353C0.317,-0.399 0.287,-0.422 0.252,-0.422C0.24,-0.422 0.23,-0.419 0.223,-0.412C0.211,-0.402 0.201,-0.384 0.193,-0.359C0.185,-0.333 0.182,-0.295 0.182,-0.242C0.182,-0.185 0.186,-0.142 0.194,-0.114C0.203,-0.087 0.214,-0.067 0.229,-0.054C0.236,-0.048 0.247,-0.045 0.26,-0.045C0.288,-0.045 0.315,-0.067 0.341,-0.112L0.341,-0.353Z" style="fill-rule:nonzero;"/>
        </g>
        <g transform="matrix(33.174,0,0,33.174,159.007,60.294)">
            <path d="M0.125,-0.15C0.148,-0.15 0.167,-0.142 0.183,-0.126C0.199,-0.111 0.207,-0.091 0.207,-0.069C0.207,-0.046 0.199,-0.027 0.183,-0.011C0.167,0.004 0.147,0.012 0.125,0.012C0.103,0.012 0.083,0.004 0.068,-0.011C0.052,-0.027 0.044,-0.046 0.044,-0.069C0.044,-0.091 0.052,-0.111 0.068,-0.126C0.083,-0.142 0.103,-0.15 0.125,-0.15Z" style="fill-rule:nonzero;"/>
        </g>
    </g>
    <g transform="matrix(0.742176,0,0,0.742176,50.8791,5.41243)">
        <g transform="matrix(33.174,0,0,33.174,30.0047,60.294)">
            <path d="M0.419,-0.442L0.453,-0.076C0.509,-0.142 0.555,-0.204 0.588,-0.263C0.608,-0.297 0.618,-0.322 0.618,-0.337C0.618,-0.344 0.617,-0.35 0.613,-0.356C0.612,-0.359 0.607,-0.363 0.598,-0.369C0.589,-0.375 0.583,-0.38 0.579,-0.386C0.576,-0.392 0.574,-0.399 0.574,-0.406C0.574,-0.416 0.577,-0.424 0.585,-0.431C0.592,-0.438 0.602,-0.442 0.614,-0.442C0.627,-0.442 0.638,-0.437 0.648,-0.427C0.657,-0.417 0.662,-0.404 0.662,-0.387C0.662,-0.37 0.659,-0.354 0.654,-0.34C0.645,-0.312 0.625,-0.276 0.597,-0.231C0.563,-0.178 0.527,-0.129 0.49,-0.084C0.454,-0.038 0.427,-0.007 0.409,0.012L0.391,0.012L0.359,-0.326L0.157,0.012L0.136,0.012C0.133,-0.127 0.126,-0.237 0.115,-0.317C0.11,-0.351 0.102,-0.373 0.09,-0.383C0.082,-0.391 0.07,-0.395 0.053,-0.395C0.044,-0.395 0.032,-0.394 0.017,-0.392L0.017,-0.409L0.157,-0.442C0.177,-0.388 0.189,-0.304 0.195,-0.191C0.197,-0.149 0.199,-0.122 0.2,-0.111L0.401,-0.442L0.419,-0.442Z" style="fill-rule:nonzero;"/>
        </g>
        <g transform="matrix(33.174,0,0,33.174,52.1315,60.294)">
            <path d="M0.119,-0.184C0.117,-0.168 0.116,-0.154 0.116,-0.144C0.116,-0.115 0.126,-0.09 0.146,-0.07C0.167,-0.049 0.192,-0.039 0.221,-0.039C0.245,-0.039 0.267,-0.044 0.289,-0.053C0.31,-0.063 0.343,-0.084 0.385,-0.117L0.396,-0.103C0.318,-0.027 0.245,0.012 0.175,0.012C0.127,0.012 0.091,-0.003 0.067,-0.033C0.043,-0.063 0.031,-0.096 0.031,-0.132C0.031,-0.181 0.046,-0.23 0.076,-0.281C0.106,-0.332 0.144,-0.372 0.189,-0.4C0.234,-0.428 0.281,-0.442 0.329,-0.442C0.363,-0.442 0.389,-0.435 0.405,-0.421C0.422,-0.407 0.43,-0.39 0.43,-0.371C0.43,-0.344 0.419,-0.318 0.398,-0.293C0.37,-0.261 0.328,-0.235 0.273,-0.215C0.236,-0.202 0.185,-0.192 0.119,-0.184ZM0.123,-0.208C0.171,-0.214 0.21,-0.223 0.24,-0.236C0.28,-0.254 0.31,-0.276 0.33,-0.301C0.35,-0.325 0.36,-0.349 0.36,-0.372C0.36,-0.385 0.356,-0.396 0.347,-0.405C0.339,-0.413 0.326,-0.417 0.311,-0.417C0.277,-0.417 0.242,-0.4 0.205,-0.365C0.168,-0.329 0.14,-0.277 0.123,-0.208Z" style="fill-rule:nonzero;"/>
        </g>
        <g transform="matrix(33.174,0,0,33.174,66.8557,60.294)">
            <path d="M0.297,-0.694L0.13,-0.113C0.122,-0.084 0.118,-0.067 0.118,-0.06C0.118,-0.055 0.12,-0.051 0.123,-0.048C0.126,-0.045 0.13,-0.043 0.134,-0.043C0.14,-0.043 0.147,-0.046 0.154,-0.051C0.171,-0.065 0.189,-0.085 0.208,-0.113L0.222,-0.098C0.191,-0.055 0.163,-0.024 0.137,-0.007C0.118,0.006 0.099,0.012 0.082,0.012C0.07,0.012 0.059,0.007 0.051,-0.001C0.043,-0.009 0.039,-0.019 0.039,-0.03C0.039,-0.042 0.044,-0.066 0.054,-0.103L0.187,-0.561C0.197,-0.598 0.203,-0.619 0.203,-0.625C0.203,-0.633 0.2,-0.639 0.193,-0.644C0.187,-0.649 0.178,-0.652 0.165,-0.652C0.157,-0.652 0.146,-0.651 0.13,-0.648L0.13,-0.667L0.297,-0.694Z" style="fill-rule:nonzero;"/>
        </g>
        <g transform="matrix(33.174,0,0,33.174,76.0725,60.294)">
            <path d="M0.386,-0.106C0.352,-0.066 0.318,-0.036 0.284,-0.017C0.249,0.002 0.213,0.012 0.174,0.012C0.128,0.012 0.092,-0.001 0.066,-0.027C0.04,-0.053 0.027,-0.088 0.027,-0.132C0.027,-0.182 0.041,-0.231 0.069,-0.279C0.097,-0.327 0.134,-0.367 0.181,-0.397C0.228,-0.427 0.275,-0.442 0.32,-0.442C0.355,-0.442 0.382,-0.434 0.399,-0.42C0.417,-0.405 0.426,-0.387 0.426,-0.365C0.426,-0.345 0.42,-0.328 0.407,-0.313C0.398,-0.302 0.387,-0.297 0.374,-0.297C0.363,-0.297 0.355,-0.3 0.348,-0.307C0.342,-0.313 0.338,-0.321 0.338,-0.331C0.338,-0.337 0.34,-0.343 0.342,-0.348C0.344,-0.353 0.35,-0.36 0.357,-0.367C0.365,-0.374 0.369,-0.38 0.371,-0.383C0.373,-0.386 0.374,-0.389 0.374,-0.393C0.374,-0.4 0.37,-0.406 0.364,-0.41C0.355,-0.417 0.341,-0.42 0.324,-0.42C0.292,-0.42 0.261,-0.409 0.229,-0.386C0.198,-0.364 0.172,-0.332 0.149,-0.291C0.123,-0.24 0.109,-0.19 0.109,-0.14C0.109,-0.107 0.119,-0.081 0.138,-0.061C0.157,-0.042 0.182,-0.032 0.215,-0.032C0.24,-0.032 0.265,-0.038 0.289,-0.051C0.314,-0.064 0.341,-0.086 0.372,-0.119L0.386,-0.106Z" style="fill-rule:nonzero;"/>
        </g>
        <g transform="matrix(33.174,0,0,33.174,90.7967,60.294)">
            <path d="M0.462,-0.289C0.462,-0.24 0.449,-0.192 0.424,-0.144C0.398,-0.096 0.362,-0.058 0.315,-0.03C0.269,-0.002 0.224,0.012 0.181,0.012C0.136,0.012 0.1,-0.003 0.072,-0.031C0.043,-0.059 0.029,-0.096 0.029,-0.142C0.029,-0.189 0.043,-0.237 0.071,-0.286C0.098,-0.334 0.135,-0.372 0.181,-0.4C0.227,-0.428 0.271,-0.442 0.314,-0.442C0.357,-0.442 0.393,-0.428 0.421,-0.399C0.448,-0.371 0.462,-0.334 0.462,-0.289ZM0.381,-0.323C0.381,-0.353 0.374,-0.376 0.359,-0.392C0.344,-0.408 0.325,-0.417 0.302,-0.417C0.254,-0.417 0.21,-0.382 0.17,-0.314C0.129,-0.245 0.109,-0.177 0.109,-0.109C0.109,-0.078 0.117,-0.055 0.133,-0.038C0.148,-0.021 0.168,-0.013 0.192,-0.013C0.238,-0.013 0.281,-0.047 0.321,-0.115C0.361,-0.183 0.381,-0.252 0.381,-0.323Z" style="fill-rule:nonzero;"/>
        </g>
        <g transform="matrix(33.174,0,0,33.174,107.384,60.294)">
            <path d="M0.217,-0.442L0.153,-0.222C0.182,-0.273 0.206,-0.312 0.226,-0.338C0.257,-0.379 0.287,-0.408 0.316,-0.426C0.333,-0.437 0.351,-0.442 0.37,-0.442C0.386,-0.442 0.4,-0.437 0.411,-0.426C0.421,-0.416 0.427,-0.403 0.427,-0.386C0.427,-0.37 0.423,-0.349 0.416,-0.324L0.381,-0.2C0.434,-0.299 0.484,-0.369 0.532,-0.409C0.558,-0.431 0.584,-0.442 0.61,-0.442C0.625,-0.442 0.637,-0.437 0.647,-0.427C0.656,-0.416 0.661,-0.4 0.661,-0.379C0.661,-0.36 0.658,-0.34 0.652,-0.319L0.599,-0.129C0.587,-0.088 0.581,-0.065 0.581,-0.06C0.581,-0.056 0.583,-0.052 0.585,-0.048C0.587,-0.046 0.59,-0.045 0.593,-0.045C0.597,-0.045 0.602,-0.048 0.61,-0.054C0.629,-0.069 0.646,-0.087 0.663,-0.111L0.679,-0.101C0.671,-0.088 0.656,-0.07 0.635,-0.047C0.615,-0.024 0.597,-0.009 0.583,-0C0.568,0.008 0.554,0.012 0.542,0.012C0.531,0.012 0.521,0.008 0.513,-0C0.506,-0.008 0.502,-0.017 0.502,-0.029C0.502,-0.044 0.509,-0.076 0.522,-0.123L0.566,-0.28C0.576,-0.316 0.582,-0.336 0.583,-0.34C0.583,-0.346 0.584,-0.352 0.584,-0.358C0.584,-0.366 0.582,-0.372 0.579,-0.377C0.575,-0.382 0.57,-0.384 0.565,-0.384C0.552,-0.384 0.537,-0.377 0.522,-0.363C0.477,-0.321 0.435,-0.264 0.396,-0.189C0.37,-0.14 0.346,-0.077 0.324,-0L0.25,-0L0.333,-0.295C0.343,-0.327 0.347,-0.349 0.347,-0.359C0.347,-0.368 0.345,-0.375 0.342,-0.379C0.338,-0.383 0.334,-0.385 0.329,-0.385C0.318,-0.385 0.306,-0.381 0.294,-0.374C0.275,-0.361 0.25,-0.334 0.219,-0.292C0.188,-0.25 0.164,-0.21 0.147,-0.172C0.139,-0.154 0.12,-0.097 0.089,-0L0.017,-0L0.107,-0.316L0.119,-0.357C0.121,-0.364 0.123,-0.368 0.123,-0.371C0.123,-0.378 0.119,-0.385 0.113,-0.39C0.106,-0.396 0.098,-0.399 0.088,-0.399C0.084,-0.399 0.072,-0.397 0.053,-0.393L0.048,-0.411L0.217,-0.442Z" style="fill-rule:nonzero;"/>
        </g>
        <g transform="matrix(33.174,0,0,33.174,131.341,60.294)">
            <path d="M0.119,-0.184C0.117,-0.168 0.116,-0.154 0.116,-0.144C0.116,-0.115 0.126,-0.09 0.146,-0.07C0.167,-0.049 0.192,-0.039 0.221,-0.039C0.245,-0.039 0.267,-0.044 0.289,-0.053C0.31,-0.063 0.343,-0.084 0.385,-0.117L0.396,-0.103C0.318,-0.027 0.245,0.012 0.175,0.012C0.127,0.012 0.091,-0.003 0.067,-0.033C0.043,-0.063 0.031,-0.096 0.031,-0.132C0.031,-0.181 0.046,-0.23 0.076,-0.281C0.106,-0.332 0.144,-0.372 0.189,-0.4C0.234,-0.428 0.281,-0.442 0.329,-0.442C0.363,-0.442 0.389,-0.435 0.405,-0.421C0.422,-0.407 0.43,-0.39 0.43,-0.371C0.43,-0.344 0.419,-0.318 0.398,-0.293C0.37,-0.261 0.328,-0.235 0.273,-0.215C0.236,-0.202 0.185,-0.192 0.119,-0.184ZM0.123,-0.208C0.171,-0.214 0.21,-0.223 0.24,-0.236C0.28,-0.254 0.31,-0.276 0.33,-0.301C0.35,-0.325 0.36,-0.349 0.36,-0.372C0.36,-0.385 0.356,-0.396 0.347,-0.405C0.339,-0.413 0.326,-0.417 0.311,-0.417C0.277,-0.417 0.242,-0.4 0.205,-0.365C0.168,-0.329 0.14,-0.277 0.123,-0.208Z" style="fill-rule:nonzero;"/>
        </g>
        <g transform="matrix(33.174,0,0,33.174,154.359,60.294)">
            <path d="M0.26,-0.563L0.222,-0.43L0.298,-0.43L0.29,-0.399L0.214,-0.399L0.13,-0.111C0.121,-0.08 0.116,-0.06 0.116,-0.051C0.116,-0.046 0.118,-0.042 0.12,-0.039C0.123,-0.036 0.126,-0.034 0.129,-0.034C0.138,-0.034 0.148,-0.04 0.162,-0.051C0.169,-0.058 0.187,-0.078 0.214,-0.111L0.23,-0.099C0.2,-0.056 0.172,-0.025 0.145,-0.007C0.127,0.006 0.108,0.012 0.09,0.012C0.076,0.012 0.064,0.007 0.055,-0.002C0.046,-0.011 0.041,-0.022 0.041,-0.036C0.041,-0.054 0.046,-0.081 0.057,-0.117L0.138,-0.399L0.064,-0.399L0.069,-0.418C0.105,-0.428 0.135,-0.443 0.159,-0.462C0.182,-0.482 0.209,-0.515 0.238,-0.563L0.26,-0.563Z" style="fill-rule:nonzero;"/>
        </g>
        <g transform="matrix(33.174,0,0,33.174,163.575,60.294)">
            <path d="M0.462,-0.289C0.462,-0.24 0.449,-0.192 0.424,-0.144C0.398,-0.096 0.362,-0.058 0.315,-0.03C0.269,-0.002 0.224,0.012 0.181,0.012C0.136,0.012 0.1,-0.003 0.072,-0.031C0.043,-0.059 0.029,-0.096 0.029,-0.142C0.029,-0.189 0.043,-0.237 0.071,-0.286C0.098,-0.334 0.135,-0.372 0.181,-0.4C0.227,-0.428 0.271,-0.442 0.314,-0.442C0.357,-0.442 0.393,-0.428 0.421,-0.399C0.448,-0.371 0.462,-0.334 0.462,-0.289ZM0.381,-0.323C0.381,-0.353 0.374,-0.376 0.359,-0.392C0.344,-0.408 0.325,-0.417 0.302,-0.417C0.254,-0.417 0.21,-0.382 0.17,-0.314C0.129,-0.245 0.109,-0.177 0.109,-0.109C0.109,-0.078 0.117,-0.055 0.133,-0.038C0.148,-0.021 0.168,-0.013 0.192,-0.013C0.238,-0.013 0.281,-0.047 0.321,-0.115C0.361,-0.183 0.381,-0.252 0.381,-0.323Z" style="fill-rule:nonzero;"/>
        </g>
    </g>
    <defs>
        <linearGradient id="_Linear2" x1="0" y1="0" x2="1" y2="0" gradientUnits="userSpaceOnUse" gradientTransform="matrix(120.77,0,0,130.597,60.8356,43.2198)"><stop offset="0" style="stop-color:white;stop-opacity:1"/><stop offset="0.1" style="stop-color:white;stop-opacity:1"/><stop offset="1" style="stop-color:white;stop-opacity:0"/></linearGradient>
        <linearGradient id="_Linear3" x1="0" y1="0" x2="1" y2="0" gradientUnits="userSpaceOnUse" gradientTransform="matrix(120.77,0,0,130.597,60.8356,43.2198)"><stop offset="0" style="stop-color:white;stop-opacity:1"/><stop offset="0.1" style="stop-color:white;stop-opacity:1"/><stop offset="1" style="stop-color:white;stop-opacity:0"/></linearGradient>
        <linearGradient id="_Linear4" x1="0" y1="0" x2="1" y2="0" gradientUnits="userSpaceOnUse" gradientTransform="matrix(120.77,0,0,130.597,60.8356,43.2198)"><stop offset="0" style="stop-color:white;stop-opacity:1"/><stop offset="0.1" style="stop-color:white;stop-opacity:1"/><stop offset="1" style="stop-color:white;stop-opacity:0"/></linearGradient>
        <linearGradient id="_Linear5" x1="0" y1="0" x2="1" y2="0" gradientUnits="userSpaceOnUse" gradientTransform="matrix(120.77,0,0,130.597,60.8356,43.2198)"><stop offset="0" style="stop-color:white;stop-opacity:1"/><stop offset="0.1" style="stop-color:white;stop-opacity:1"/><stop offset="1" style="stop-color:white;stop-opacity:0"/></linearGradient>
        <linearGradient id="_Linear7" x1="0" y1="0" x2="1" y2="0" gradientUnits="userSpaceOnUse" gradientTransform="matrix(120.77,0,0,130.597,60.8356,43.2198)"><stop offset="0" style="stop-color:white;stop-opacity:1"/><stop offset="0.1" style="stop-color:white;stop-opacity:1"/><stop offset="1" style="stop-color:white;stop-opacity:0"/></linearGradient>
        <linearGradient id="_Linear8" x1="0" y1="0" x2="1" y2="0" gradientUnits="userSpaceOnUse" gradientTransform="matrix(120.77,0,0,130.597,60.8356,43.2198)"><stop offset="0" style="stop-color:white;stop-opacity:1"/><stop offset="0.1" style="stop-color:white;stop-opacity:1"/><stop offset="1" style="stop-color:white;stop-opacity:0"/></linearGradient>
        <linearGradient id="_Linear9" x1="0" y1="0" x2="1" y2="0" gradientUnits="userSpaceOnUse" gradientTransform="matrix(120.77,0,0,130.597,60.8356,43.2198)"><stop offset="0" style="stop-color:white;stop-opacity:1"/><stop offset="0.1" style="stop-color:white;stop-opacity:1"/><stop offset="1" style="stop-color:white;stop-opacity:0"/></linearGradient>
        <linearGradient id="_Linear10" x1="0" y1="0" x2="1" y2="0" gradientUnits="userSpaceOnUse" gradientTransform="matrix(120.77,0,0,130.597,60.8356,43.2198)"><stop offset="0" style="stop-color:white;stop-opacity:1"/><stop offset="0.1" style="stop-color:white;stop-opacity:1"/><stop offset="1" style="stop-color:white;stop-opacity:0"/></linearGradient>
    </defs>
</svg>
